<svg xmlns="http://www.w3.org/2000/svg" width="21.213" height="21.213" viewBox="0 0 21.213 21.213">
  <path id="Icon_awesome-facebook-square" data-name="Icon awesome-facebook-square" d="M18.94,2.25H2.273A2.273,2.273,0,0,0,0,4.523V21.19a2.273,2.273,0,0,0,2.273,2.273h6.5V16.251H5.789V12.856H8.772V10.269c0-2.943,1.752-4.568,4.435-4.568a18.072,18.072,0,0,1,2.629.229V8.818H14.355a1.7,1.7,0,0,0-1.914,1.834v2.2H15.7l-.521,3.395H12.441v7.212h6.5a2.273,2.273,0,0,0,2.273-2.273V4.523A2.273,2.273,0,0,0,18.94,2.25Z" transform="translate(0 -2.25)" fill="#fff"/>
</svg>
