<svg id="toilet" xmlns="http://www.w3.org/2000/svg" width="12.671" height="20.008" viewBox="0 0 12.671 20.008">
  <path id="Path_81" data-name="Path 81" d="M12.5,2.042l-1.207-.661L10.628.173a.347.347,0,0,0-.585,0l-.552,1.01A5.513,5.513,0,0,0,5.65,0C3.482,0,1.994.638,1.222,1.885-.017,3.889,1,6.848,1.484,8H1.332a1.328,1.328,0,0,0-.873,2.334c-.023.02-.048.036-.07.058a1.334,1.334,0,0,0,.634,2.24A4.05,4.05,0,0,0,3.344,15.9a12.45,12.45,0,0,1-.3,2.6.842.842,0,0,0,.123.775c.521.7,2.174.739,2.5.739s1.979-.036,2.5-.739a.841.841,0,0,0,.124-.774,12.223,12.223,0,0,1-.3-2.6,4.051,4.051,0,0,0,2.323-3.263,1.328,1.328,0,0,0,.562-2.3A1.328,1.328,0,0,0,10,8H9.815a10.76,10.76,0,0,0,.846-3.568l.627-1.147L12.5,2.628a.333.333,0,0,0,0-.585ZM7.652,18.688a.183.183,0,0,1-.021.184c-.239.323-1.292.469-1.964.469s-1.725-.146-1.964-.469a.184.184,0,0,1-.02-.185A12.02,12.02,0,0,0,4,16.126a6.183,6.183,0,0,0,1.664.214,6.183,6.183,0,0,0,1.663-.213,11.807,11.807,0,0,0,.322,2.562Zm3.017-7.35A.667.667,0,0,1,10,12a.333.333,0,0,0-.334.334c0,.136-.063,3.335-4,3.335s-4-3.2-4-3.335A.333.333,0,0,0,1.332,12a.667.667,0,1,1,0-1.334H10a.667.667,0,0,1,.667.667Zm0-2A.667.667,0,0,1,10,10H1.332a.667.667,0,1,1,0-1.334H10A.667.667,0,0,1,10.669,9.337ZM2.212,8C1.863,7.219.619,4.129,1.79,2.236,2.433,1.2,3.731.67,5.65.667a5.01,5.01,0,0,1,3.32.94l-.794.434a.333.333,0,0,0,0,.585l1.207.661L10,4.407A10.5,10.5,0,0,1,9.089,8Zm8.67-5.254a.333.333,0,0,0-.133.133l-.413.758-.415-.759a.333.333,0,0,0-.133-.133L9.03,2.334l.758-.415a.333.333,0,0,0,.133-.133l.414-.758.415.759a.333.333,0,0,0,.133.133l.758.414Zm0,0" transform="translate(0.002 0)" fill="#f19120"/>
  <path id="Path_82" data-name="Path 82" d="M89.839,62.095l-1.207-.661-.661-1.208a.347.347,0,0,0-.585,0l-.661,1.208-1.207.661a.333.333,0,0,0,0,.585l1.207.661.661,1.208a.334.334,0,0,0,.585,0l.661-1.208,1.207-.661a.333.333,0,0,0,0-.585Zm-1.613.707a.333.333,0,0,0-.133.133l-.414.758-.415-.759a.334.334,0,0,0-.133-.133l-.758-.414.758-.415a.335.335,0,0,0,.133-.133l.414-.758.415.759a.334.334,0,0,0,.133.133l.758.414Zm0,0" transform="translate(-82.009 -57.719)" fill="#f19120"/>
</svg>
