<svg id="Component_39_1" data-name="Component 39 – 1" xmlns="http://www.w3.org/2000/svg" width="20.459" height="20.459" viewBox="0 0 20.459 20.459">
  <rect id="Rectangle_199" data-name="Rectangle 199" width="20.459" height="20.459" rx="4" fill="#fff"/>
  <path id="Icon_awesome-instagram" data-name="Icon awesome-instagram" d="M4.826,4.591A2.477,2.477,0,1,0,7.3,7.068,2.472,2.472,0,0,0,4.826,4.591Zm0,4.087a1.61,1.61,0,1,1,1.61-1.61A1.613,1.613,0,0,1,4.826,8.678ZM7.981,4.49A.578.578,0,1,1,7.4,3.912.576.576,0,0,1,7.981,4.49Zm1.64.586a2.859,2.859,0,0,0-.78-2.024,2.876,2.876,0,0,0-2.024-.78c-.8-.045-3.187-.045-3.985,0A2.872,2.872,0,0,0,.809,3.05a2.868,2.868,0,0,0-.78,2.024c-.045.8-.045,3.188,0,3.985a2.859,2.859,0,0,0,.78,2.024,2.88,2.88,0,0,0,2.024.78c.8.045,3.187.045,3.985,0a2.858,2.858,0,0,0,2.024-.78,2.878,2.878,0,0,0,.78-2.024C9.666,8.262,9.666,5.873,9.62,5.076ZM8.59,9.915a1.63,1.63,0,0,1-.918.918,10.641,10.641,0,0,1-2.847.194,10.724,10.724,0,0,1-2.847-.194,1.63,1.63,0,0,1-.918-.918A10.648,10.648,0,0,1,.867,7.068,10.731,10.731,0,0,1,1.061,4.22,1.63,1.63,0,0,1,1.979,3.3a10.641,10.641,0,0,1,2.847-.194A10.724,10.724,0,0,1,7.672,3.3a1.63,1.63,0,0,1,.918.918,10.648,10.648,0,0,1,.194,2.847A10.642,10.642,0,0,1,8.59,9.915Z" transform="translate(5.596 3.162)" fill="#f6a447"/>
</svg>
