<svg id="Component_36_1" data-name="Component 36 – 1" xmlns="http://www.w3.org/2000/svg" width="26.545" height="31.46" viewBox="0 0 26.545 31.46">
  <path id="Path_69" data-name="Path 69" d="M65.787,5.094l-12.043-5a1.229,1.229,0,0,0-.942,0l-12.043,5A1.229,1.229,0,0,0,40,6.229v6.079A20.58,20.58,0,0,0,52.808,31.369a1.229,1.229,0,0,0,.929,0A20.58,20.58,0,0,0,66.545,12.308V6.229A1.229,1.229,0,0,0,65.787,5.094Zm-1.7,7.214A18.127,18.127,0,0,1,53.272,28.9,18.127,18.127,0,0,1,42.458,12.308V7.05L53.272,2.56,64.087,7.05ZM51.914,16.45,57.2,11.168a1.229,1.229,0,1,1,1.738,1.738l-6.151,6.151a1.229,1.229,0,0,1-1.738,0l-3.434-3.434a1.229,1.229,0,0,1,1.738-1.738Z" transform="translate(-40 0)" fill="#f6ae59"/>
</svg>
