<svg id="Component_38_1" data-name="Component 38 – 1" xmlns="http://www.w3.org/2000/svg" width="21.596" height="20.459" viewBox="0 0 21.596 20.459">
  <rect id="Rectangle_198" data-name="Rectangle 198" width="21.596" height="20.459" rx="4" fill="#fff"/>
  <path id="Icon_awesome-twitter" data-name="Icon awesome-twitter" d="M11.608,5.96c.008.113.008.226.008.34a7.433,7.433,0,0,1-7.544,7.431A7.576,7.576,0,0,1,0,12.558a5.568,5.568,0,0,0,.64.032,5.362,5.362,0,0,0,3.292-1.116A2.652,2.652,0,0,1,1.453,9.664a3.394,3.394,0,0,0,.5.04,2.845,2.845,0,0,0,.7-.089A2.622,2.622,0,0,1,.525,7.052V7.019a2.7,2.7,0,0,0,1.2.332A2.6,2.6,0,0,1,.542,5.176,2.563,2.563,0,0,1,.9,3.858,7.575,7.575,0,0,0,6.37,6.591a2.906,2.906,0,0,1-.066-.6A2.631,2.631,0,0,1,8.956,3.381a2.664,2.664,0,0,1,1.937.825,5.269,5.269,0,0,0,1.683-.631,2.612,2.612,0,0,1-1.166,1.439,5.379,5.379,0,0,0,1.527-.4,5.654,5.654,0,0,1-1.33,1.35Z" transform="translate(4.706 1.818)" fill="#f6a447"/>
</svg>
