<svg xmlns="http://www.w3.org/2000/svg" width="21.213" height="21.213" viewBox="0 0 21.213 21.213">
  <path id="Icon_awesome-linkedin" data-name="Icon awesome-linkedin" d="M19.7,2.25H1.51A1.522,1.522,0,0,0,0,3.779V21.933a1.522,1.522,0,0,0,1.51,1.529H19.7a1.526,1.526,0,0,0,1.515-1.529V3.779A1.526,1.526,0,0,0,19.7,2.25ZM6.411,20.432H3.267V10.309H6.416V20.432ZM4.839,8.926A1.823,1.823,0,1,1,6.662,7.1,1.824,1.824,0,0,1,4.839,8.926ZM18.2,20.432H15.053V15.508c0-1.174-.024-2.685-1.634-2.685-1.638,0-1.889,1.278-1.889,2.6v5.01H8.386V10.309H11.4v1.383h.043a3.312,3.312,0,0,1,2.978-1.634c3.182,0,3.774,2.1,3.774,4.825Z" transform="translate(0 -2.25)" fill="#fff"/>
</svg>
