<svg id="Icon_awesome-broom" data-name="Icon awesome-broom" xmlns="http://www.w3.org/2000/svg" width="34.587" height="27.67" viewBox="0 0 34.587 27.67">
  <path id="Icon_awesome-broom-2" data-name="Icon awesome-broom" d="M13.86,11.715l4.687,5.9s-.9,5.532-4.138,8.113S0,27.572,0,27.572s.205-1.251.594-3l5.114-6.062A.324.324,0,0,0,5.349,18L2.084,19.195c.78-2.251,1.768-4.326,2.951-5.268C8.276,11.346,13.86,11.715,13.86,11.715ZM34.4,1.677,33.327.326A.861.861,0,0,0,32.115.188L19.552,9.8,17.707,7.474a.594.594,0,0,0-1,.119l-1.369,2.948,4.687,5.9,3.178-.673a.594.594,0,0,0,.343-.951L21.7,12.5,34.262,2.89A.864.864,0,0,0,34.4,1.677Z" transform="translate(0 0)" fill="#f6ae59"/>
</svg>
