<svg xmlns="http://www.w3.org/2000/svg" width="23.121" height="26.975" viewBox="0 0 23.121 26.975">
  <path id="Icon_metro-language" data-name="Icon metro-language" d="M14.614,18.43q-.015.045-.188-.008t-.474-.173l-.3-.135a9.019,9.019,0,0,1-1.31-.738q-.105-.075-.617-.474t-.572-.429A25.644,25.644,0,0,1,9.135,19.2a11.19,11.19,0,0,1-1.581,1.656,1.193,1.193,0,0,1-.294.06.58.58,0,0,1-.278,0q.09-.06,1.234-1.385Q8.533,19.168,9.5,17.8a21.045,21.045,0,0,0,1.182-1.776q.256-.452.768-1.483A11.733,11.733,0,0,0,12,13.373a12.37,12.37,0,0,0-1.656.5q-.12.03-.414.113t-.519.143a2.579,2.579,0,0,0-.256.075.256.256,0,0,0-.03.158.334.334,0,0,1-.015.143q-.075.151-.467.226a1.214,1.214,0,0,1-.707,0,.635.635,0,0,1-.421-.316.766.766,0,0,1-.075-.346A2.909,2.909,0,0,1,7.8,13.99a4.5,4.5,0,0,0,.444-.09q.873-.241,1.581-.482,1.505-.527,1.535-.527a3.34,3.34,0,0,0,.647-.294,6.809,6.809,0,0,1,.662-.324q.135-.045.324-.12t.218-.083a.2.2,0,0,1,.09.008,1.713,1.713,0,0,1-.015.5,3.205,3.205,0,0,1-.188.406q-.188.376-.4.805t-.256.5a22.576,22.576,0,0,1-1.159,1.972l.963.421q.181.09,1.121.482l1.016.421q.06.015.158.384a1.14,1.14,0,0,1,.068.459Zm-3.086-7.316a.61.61,0,0,1-.06.421,1.364,1.364,0,0,1-.753.572,2.417,2.417,0,0,1-.9.181,1.246,1.246,0,0,1-.738-.391A1.132,1.132,0,0,1,8.8,11.28l.015-.045a.644.644,0,0,0,.294.075,1.309,1.309,0,0,0,.4,0q.151-.03.873-.241a4.3,4.3,0,0,1,.828-.211.3.3,0,0,1,.316.256Zm10.507,1.942.948,3.417-2.092-.632ZM5.357,25.1,15.8,21.607V6.072L5.357,9.579V25.1Zm18.681-4.772,1.535.467L22.848,10.9l-1.505-.467-3.251,8.068,1.535.467.677-1.656,3.176.978ZM16.466,5.846l8.625,2.77V2.9Zm4.681,19.915,2.378.2-.813,2.408-.6-.993A11.159,11.159,0,0,1,17.956,29a7.215,7.215,0,0,1-1.37.181H15.322a10.174,10.174,0,0,1-3-.587,10,10,0,0,1-2.762-1.279.314.314,0,0,1-.12-.241.291.291,0,0,1,.075-.2.252.252,0,0,1,.2-.083.847.847,0,0,1,.271.113l.459.248q.248.135.309.166a13.337,13.337,0,0,0,2.4.926,8.771,8.771,0,0,0,2.371.369,12.846,12.846,0,0,0,2.514-.218,12.406,12.406,0,0,0,2.363-.76q.226-.105.459-.233t.512-.286q.278-.158.429-.248ZM27.891,9.519V25.761l-11.651-3.7q-.211.09-5.645,1.919T5.056,25.806a.272.272,0,0,1-.271-.2.116.116,0,0,0-.015-.045V9.339a.672.672,0,0,1,.06-.151.677.677,0,0,1,.3-.166q1.6-.527,2.243-.753V2.489l8.4,2.98q.03,0,2.416-.828t4.757-1.633Q25.317,2.2,25.377,2.2q.3,0,.3.316V8.812Z" transform="translate(-4.77 -2.203)" fill="#f29220"/>
</svg>
