<svg id="Icon_awesome-money-bill-wave-alt" data-name="Icon awesome-money-bill-wave-alt" xmlns="http://www.w3.org/2000/svg" width="33.954" height="23.768" viewBox="0 0 33.954 23.768">
  <path id="Icon_awesome-money-bill-wave-alt-2" data-name="Icon awesome-money-bill-wave-alt" d="M32.954,3.442A15.711,15.711,0,0,0,26.778,2.25c-6.534,0-13.068,3.307-19.6,3.307A16.1,16.1,0,0,1,2.26,4.829a1.814,1.814,0,0,0-.549-.086A1.688,1.688,0,0,0,0,6.431V23.263a1.687,1.687,0,0,0,1,1.563,15.7,15.7,0,0,0,6.176,1.192c6.534,0,13.069-3.308,19.6-3.308a16.1,16.1,0,0,1,4.915.728,1.814,1.814,0,0,0,.549.086,1.688,1.688,0,0,0,1.711-1.688V5.005A1.689,1.689,0,0,0,32.954,3.442ZM16.977,19.227c-2.344,0-4.244-2.281-4.244-5.093s1.9-5.093,4.244-5.093,4.244,2.28,4.244,5.093S19.32,19.227,16.977,19.227Z" transform="translate(0 -2.25)" fill="#f6ae59"/>
</svg>
