<svg xmlns="http://www.w3.org/2000/svg" width="16.1" height="16.1" viewBox="0 0 16.1 16.1">
  <path id="Icon_material-local-phone" data-name="Icon material-local-phone" d="M7.738,11.468a13.549,13.549,0,0,0,5.894,5.894L15.6,15.394a.889.889,0,0,1,.912-.215,10.2,10.2,0,0,0,3.193.51.9.9,0,0,1,.894.894v3.122a.9.9,0,0,1-.894.894A15.2,15.2,0,0,1,4.5,5.394.9.9,0,0,1,5.394,4.5H8.525a.9.9,0,0,1,.894.894,10.161,10.161,0,0,0,.51,3.193.9.9,0,0,1-.224.912Z" transform="translate(-4.5 -4.5)" fill="#fff"/>
</svg>
