<svg id="plus" xmlns="http://www.w3.org/2000/svg" width="10.899" height="10.898" viewBox="0 0 10.899 10.898">
  <path id="Path_272" data-name="Path 272" d="M13.324,7.875a.605.605,0,0,1,.605.605v4.844a.605.605,0,0,1-.605.605H8.48a.605.605,0,0,1,0-1.211h4.238V8.48A.605.605,0,0,1,13.324,7.875Z" transform="translate(-7.875 -7.875)" fill="#f19120"/>
  <path id="Path_273" data-name="Path 273" d="M16.875,17.48a.605.605,0,0,1,.605-.605h4.844a.605.605,0,1,1,0,1.211H18.086v4.238a.605.605,0,1,1-1.211,0Z" transform="translate(-12.031 -12.031)" fill="#f19120"/>
</svg>
